<?xml version="1.0" encoding="UTF-8"?>
<svg width="19px" height="26px" viewBox="0 0 19 26" version="1.1" xmlns="http://www.w3.org/2000/svg" xmlns:xlink="http://www.w3.org/1999/xlink">
    <!-- Generator: Sketch 51.3 (57544) - http://www.bohemiancoding.com/sketch -->
    <title>Membean Logo</title>
    <desc>Created with Sketch.</desc>
    <defs>
        <linearGradient x1="38.3220223%" y1="59.6851444%" x2="56.1727655%" y2="31.3701227%" id="linearGradient-1">
            <stop stop-color="#6FBE47" offset="0%"></stop>
            <stop stop-color="#308D43" offset="100%"></stop>
        </linearGradient>
        <linearGradient x1="103.057338%" y1="70.021973%" x2="17.2773294%" y2="-12.7307212%" id="linearGradient-2">
            <stop stop-color="#6FBE47" offset="10%"></stop>
            <stop stop-color="#308D43" offset="100%"></stop>
        </linearGradient>
        <linearGradient x1="3756.52389%" y1="-855.872467%" x2="3679.99505%" y2="68.9712853%" id="linearGradient-3">
            <stop stop-color="#6FBE47" offset="10%"></stop>
            <stop stop-color="#308D43" offset="100%"></stop>
        </linearGradient>
        <linearGradient x1="4390.90121%" y1="-702.412481%" x2="4301.61756%" y2="251.676713%" id="linearGradient-4">
            <stop stop-color="#6FBE47" offset="10%"></stop>
            <stop stop-color="#308D43" offset="100%"></stop>
        </linearGradient>
        <linearGradient x1="3824.2915%" y1="-1008.05217%" x2="3746.02733%" y2="-102.333564%" id="linearGradient-5">
            <stop stop-color="#6FBE47" offset="10%"></stop>
            <stop stop-color="#308D43" offset="100%"></stop>
        </linearGradient>
        <linearGradient x1="4262.44331%" y1="-1542.54831%" x2="4174.85828%" y2="-350.919369%" id="linearGradient-6">
            <stop stop-color="#6FBE47" offset="10%"></stop>
            <stop stop-color="#308D43" offset="100%"></stop>
        </linearGradient>
        <linearGradient x1="6076.63818%" y1="-1861.94817%" x2="5950.87505%" y2="-586.578107%" id="linearGradient-7">
            <stop stop-color="#6FBE47" offset="10%"></stop>
            <stop stop-color="#308D43" offset="100%"></stop>
        </linearGradient>
        <linearGradient x1="10461.4245%" y1="-2298.85408%" x2="10243.3004%" y2="-874.416901%" id="linearGradient-8">
            <stop stop-color="#6FBE47" offset="10%"></stop>
            <stop stop-color="#308D43" offset="100%"></stop>
        </linearGradient>
        <linearGradient x1="3736.8408%" y1="-687.91449%" x2="3651.15128%" y2="573.573932%" id="linearGradient-9">
            <stop stop-color="#6FBE47" offset="10%"></stop>
            <stop stop-color="#308D43" offset="100%"></stop>
        </linearGradient>
        <linearGradient x1="4367.06154%" y1="-538.0508%" x2="4267.09044%" y2="764.789644%" id="linearGradient-10">
            <stop stop-color="#6FBE47" offset="10%"></stop>
            <stop stop-color="#308D43" offset="100%"></stop>
        </linearGradient>
        <linearGradient x1="3805.81984%" y1="-837.604814%" x2="3718.24393%" y2="401.603278%" id="linearGradient-11">
            <stop stop-color="#6FBE47" offset="10%"></stop>
            <stop stop-color="#308D43" offset="100%"></stop>
        </linearGradient>
        <linearGradient x1="4243.76417%" y1="-1307.56639%" x2="4145.69161%" y2="323.396286%" id="linearGradient-12">
            <stop stop-color="#6FBE47" offset="10%"></stop>
            <stop stop-color="#308D43" offset="100%"></stop>
        </linearGradient>
        <linearGradient x1="6050.36615%" y1="-1603.13286%" x2="5909.68267%" y2="143.670073%" id="linearGradient-13">
            <stop stop-color="#6FBE47" offset="10%"></stop>
            <stop stop-color="#308D43" offset="100%"></stop>
        </linearGradient>
        <linearGradient x1="10431.4749%" y1="-2000.46188%" x2="10187.2265%" y2="-49.908723%" id="linearGradient-14">
            <stop stop-color="#6FBE47" offset="10%"></stop>
            <stop stop-color="#308D43" offset="100%"></stop>
        </linearGradient>
        <linearGradient x1="15405.3731%" y1="-13.7492043%" x2="15512.7987%" y2="-13.7492043%" id="linearGradient-15">
            <stop stop-color="#6FBE47" offset="10%"></stop>
            <stop stop-color="#308D43" offset="100%"></stop>
        </linearGradient>
        <linearGradient x1="17526.3522%" y1="-117.888748%" x2="17634.7908%" y2="-117.888748%" id="linearGradient-16">
            <stop stop-color="#6FBE47" offset="10%"></stop>
            <stop stop-color="#308D43" offset="100%"></stop>
        </linearGradient>
        <linearGradient x1="26421.6661%" y1="-247.666667%" x2="26531.1468%" y2="-247.666667%" id="linearGradient-17">
            <stop stop-color="#6FBE47" offset="10%"></stop>
            <stop stop-color="#308D43" offset="100%"></stop>
        </linearGradient>
        <linearGradient x1="62505.2407%" y1="-355.742297%" x2="62619.0383%" y2="-355.742297%" id="linearGradient-18">
            <stop stop-color="#6FBE47" offset="10%"></stop>
            <stop stop-color="#308D43" offset="100%"></stop>
        </linearGradient>
        <linearGradient x1="35594.4693%" y1="-474.518519%" x2="35684.1886%" y2="-474.518519%" id="linearGradient-19">
            <stop stop-color="#6FBE47" offset="10%"></stop>
            <stop stop-color="#308D43" offset="100%"></stop>
        </linearGradient>
        <linearGradient x1="91729.7906%" y1="-676.889279%" x2="91838.2577%" y2="-676.889279%" id="linearGradient-20">
            <stop stop-color="#6FBE47" offset="10%"></stop>
            <stop stop-color="#308D43" offset="100%"></stop>
        </linearGradient>
        <linearGradient x1="4.06799084%" y1="13.1739275%" x2="102.250402%" y2="2.94080648%" id="linearGradient-21">
            <stop stop-color="#ABC96A" offset="10%"></stop>
            <stop stop-color="#A8C868" offset="36%"></stop>
            <stop stop-color="#A0C466" offset="51%"></stop>
            <stop stop-color="#93BE5F" offset="64%"></stop>
            <stop stop-color="#7FB358" offset="75%"></stop>
            <stop stop-color="#65A754" offset="85%"></stop>
            <stop stop-color="#439748" offset="95%"></stop>
            <stop stop-color="#308D43" offset="100%"></stop>
        </linearGradient>
        <linearGradient x1="62.078991%" y1="69.0065348%" x2="42.4291037%" y2="41.8565487%" id="linearGradient-22">
            <stop stop-color="#6FBE47" offset="0%"></stop>
            <stop stop-color="#308D43" offset="100%"></stop>
        </linearGradient>
        <linearGradient x1="42.9511228%" y1="51.7378628%" x2="51.5718659%" y2="-5.65698972%" id="linearGradient-23">
            <stop stop-color="#6FBE47" offset="10%"></stop>
            <stop stop-color="#308D43" offset="100%"></stop>
        </linearGradient>
        <linearGradient x1="-14.2703919%" y1="981.490209%" x2="61.8585805%" y2="-175.715646%" id="linearGradient-24">
            <stop stop-color="#6FBE47" offset="10%"></stop>
            <stop stop-color="#308D43" offset="100%"></stop>
        </linearGradient>
        <linearGradient x1="-40.3802904%" y1="1185.59441%" x2="48.425085%" y2="24.716388%" id="linearGradient-25">
            <stop stop-color="#6FBE47" offset="10%"></stop>
            <stop stop-color="#308D43" offset="100%"></stop>
        </linearGradient>
        <linearGradient x1="-2.86792963%" y1="767.952796%" x2="74.9550744%" y2="-351.214964%" id="linearGradient-26">
            <stop stop-color="#6FBE47" offset="10%"></stop>
            <stop stop-color="#308D43" offset="100%"></stop>
        </linearGradient>
        <linearGradient x1="4.93495441%" y1="595.901628%" x2="92.3097264%" y2="-539.203122%" id="linearGradient-27">
            <stop stop-color="#6FBE47" offset="10%"></stop>
            <stop stop-color="#308D43" offset="100%"></stop>
        </linearGradient>
        <linearGradient x1="5.71691499%" y1="382.748736%" x2="131.605171%" y2="-716.283307%" id="linearGradient-28">
            <stop stop-color="#6FBE47" offset="10%"></stop>
            <stop stop-color="#308D43" offset="100%"></stop>
        </linearGradient>
        <linearGradient x1="2.06722689%" y1="244.572581%" x2="221.672269%" y2="-996.783611%" id="linearGradient-29">
            <stop stop-color="#6FBE47" offset="10%"></stop>
            <stop stop-color="#308D43" offset="100%"></stop>
        </linearGradient>
        <linearGradient x1="5.38373941%" y1="816.784627%" x2="90.6994174%" y2="-769.943735%" id="linearGradient-30">
            <stop stop-color="#6FBE47" offset="10%"></stop>
            <stop stop-color="#308D43" offset="100%"></stop>
        </linearGradient>
        <linearGradient x1="-15.356194%" y1="1027.58106%" x2="84.1368551%" y2="-557.576512%" id="linearGradient-31">
            <stop stop-color="#6FBE47" offset="10%"></stop>
            <stop stop-color="#308D43" offset="100%"></stop>
        </linearGradient>
        <linearGradient x1="15.5558863%" y1="596.87351%" x2="102.716644%" y2="-936.824585%" id="linearGradient-32">
            <stop stop-color="#6FBE47" offset="10%"></stop>
            <stop stop-color="#308D43" offset="100%"></stop>
        </linearGradient>
        <linearGradient x1="23.6762918%" y1="411.053902%" x2="121.538298%" y2="-1142.36822%" id="linearGradient-33">
            <stop stop-color="#6FBE47" offset="10%"></stop>
            <stop stop-color="#308D43" offset="100%"></stop>
        </linearGradient>
        <linearGradient x1="29.7616126%" y1="195.321448%" x2="170.687993%" y2="-1301.31437%" id="linearGradient-34">
            <stop stop-color="#71BF44" offset="10%"></stop>
            <stop stop-color="#308D43" offset="100%"></stop>
        </linearGradient>
        <linearGradient x1="39.7929717%" y1="23.7894148%" x2="285.898396%" y2="-1674.54581%" id="linearGradient-35">
            <stop stop-color="#6FBE47" offset="10%"></stop>
            <stop stop-color="#308D43" offset="100%"></stop>
        </linearGradient>
        <linearGradient x1="78.4237996%" y1="50%" x2="-21.2745303%" y2="50%" id="linearGradient-36">
            <stop stop-color="#6FBE47" offset="10%"></stop>
            <stop stop-color="#308D43" offset="100%"></stop>
        </linearGradient>
        <linearGradient x1="76.1556604%" y1="49.9675535%" x2="-23.5341981%" y2="49.9675535%" id="linearGradient-37">
            <stop stop-color="#6FBE47" offset="10%"></stop>
            <stop stop-color="#308D43" offset="100%"></stop>
        </linearGradient>
        <linearGradient x1="63.1718633%" y1="50%" x2="-36.6621007%" y2="50%" id="linearGradient-38">
            <stop stop-color="#6FBE47" offset="10%"></stop>
            <stop stop-color="#308D43" offset="100%"></stop>
        </linearGradient>
        <linearGradient x1="19.1032395%" y1="50%" x2="-80.3804925%" y2="50%" id="linearGradient-39">
            <stop stop-color="#6FBE47" offset="10%"></stop>
            <stop stop-color="#308D43" offset="100%"></stop>
        </linearGradient>
        <linearGradient x1="42.5113356%" y1="50%" x2="-57.0269781%" y2="50%" id="linearGradient-40">
            <stop stop-color="#6FBE47" offset="10%"></stop>
            <stop stop-color="#308D43" offset="100%"></stop>
        </linearGradient>
        <linearGradient x1="-20.5105922%" y1="49.7801231%" x2="-120.031553%" y2="49.7801231%" id="linearGradient-41">
            <stop stop-color="#6FBE47" offset="10%"></stop>
            <stop stop-color="#308D43" offset="100%"></stop>
        </linearGradient>
        <linearGradient x1="93.8131529%" y1="50.1418394%" x2="-5.90315623%" y2="50.1418394%" id="linearGradient-42">
            <stop stop-color="#ABC96A" offset="10%"></stop>
            <stop stop-color="#A8C868" offset="36%"></stop>
            <stop stop-color="#A0C466" offset="51%"></stop>
            <stop stop-color="#93BE5F" offset="64%"></stop>
            <stop stop-color="#7FB358" offset="75%"></stop>
            <stop stop-color="#65A754" offset="85%"></stop>
            <stop stop-color="#439748" offset="95%"></stop>
            <stop stop-color="#308D43" offset="100%"></stop>
        </linearGradient>
    </defs>
    <g id="Logos" stroke="none" stroke-width="1" fill="none" fill-rule="evenodd">
        <g id="logos/color/logo" fill-rule="nonzero">
            <g id="Membean-Logo">
                <g id="Background_Outline_Color">
                    <g id="g392" transform="translate(2.636364, 0.000000)">
                        <path d="M11.8863636,24.0318182 L8.65909091,23.0909091 L9.17090909,22.3236364 C9.26238952,21.5792578 9.30823277,20.8299787 9.30818182,20.08 C9.30818182,18.8478788 9.16424242,17.9033333 8.87636364,17.2463636 C8.52181818,17.2857576 8.20030303,17.679697 7.91181818,18.4281818 C7.91181818,19.4130303 7.8330303,20.6987879 7.67545455,22.2854545 C7.84636364,22.7054545 7.92515152,22.9809091 7.91181818,23.1118182 L4.90090909,22.6790909 C4.91454545,22.5736364 5.04545455,22.4163636 5.29545455,22.2063636 C5.58333333,20.6427273 5.72727273,19.5524242 5.72727273,18.9354545 C5.72727273,18.3327273 5.63,17.9354545 5.43545455,17.7536364 C5.08727273,17.7536364 4.88,17.8654545 4.81545455,18.0881818 L4.48545455,19.27 L4.38909091,22.8154545 L4.88090909,23.6809091 L1.69272727,24.3109091 L1.92909091,22.7372727 L2.16636364,14 L1.83181818,12.7409091 L5.21636364,13.2727273 L4.62636364,14.0790909 L4.62636364,14.2954545 C8.88363636,11.8409091 4.94181818,1.32363636 5.40090909,1.32363636 C6.01727273,1.32363636 9.09181818,9.00909091 7.38090909,14.5118182 C7.79272727,13.74 8.58181818,13.2136364 9.29,13.2918182 C10.3390909,13.4130303 11.0342424,14.7381818 11.3754545,17.2672727 C11.5190909,18.290303 11.6042424,19.9760606 11.6309091,22.3245455 L11.8863636,24.0354545 L11.8863636,24.0318182 Z" id="path394" fill="#2B383F"></path>
                        <path d="M0.109090909,25.9663636 L0.611818182,22.6172727 L0.840909091,14.1518182 L0.0354545455,11.1190909 L4.95090909,11.8909091 C5.84909091,9.52272727 4.80454545,5.04181818 4.35818182,3.12909091 C4,1.60545455 3.88272727,1.09090909 4.34454545,0.51 L4.60909091,0.11 L5.4,0 C5.90272727,0 6.34090909,0.25 6.70363636,0.742727273 C7.56545455,1.91363636 9.52818182,7.05636364 9.17545455,11.9609091 C9.26204476,11.9618332 9.34852703,11.9672952 9.43454545,11.9772727 C12.0336364,12.2690909 12.5254545,15.8963636 12.6827273,17.0881818 C12.8327273,18.1536364 12.9209091,19.8336364 12.9490909,22.2154545 L13.4945455,25.8809091 L9.09090909,24.5909091 L9.09090909,24.6118182 L6.73727273,24.2727273 L6.93363636,24.6181818 L0.109090909,25.9663636 Z" id="path396" fill="#262E30"></path>
                    </g>
                    <g id="g434" transform="translate(8.181818, 2.909091)" fill="#262E30">
                        <path d="M9.04454545,3 C8.12,1.83818182 7.10454545,1.24909091 6.02272727,1.24909091 C5.6637874,1.2524415 5.3076114,1.31226434 4.96727273,1.42636364 C4.05818182,0.536363636 2.87636364,0.0854545455 1.44818182,0.0854545455 L1.27272727,0.0909090909 C0.586656598,0.0978482178 0.0330274865,0.653905528 0.0290909091,1.34 C0.000189814312,2.02605335 0.520717811,2.61134565 1.20545455,2.66272727 C1.90636364,2.70818182 2.39272727,2.78181818 2.76090909,2.99 C2.39727273,3.56363636 2.01818182,4.51818182 2.62636364,5.86454545 C3.38454545,7.54272727 4.80272727,7.98454545 5.74090909,8.27636364 C6.07909091,8.38181818 6.5,8.51272727 6.60636364,8.63545455 C6.63476373,8.70481685 6.65786032,8.77623394 6.67545455,8.84909091 C6.74454545,9.09909091 6.95545455,9.86 7.77727273,9.96636364 L7.84818182,9.97545455 L7.92181818,9.97545455 C8.51818182,9.97545455 8.95636364,9.57272727 9.43272727,8.58545455 C10.39,6.59909091 10.2454545,4.51181818 9.04454545,3 Z" id="path436"></path>
                    </g>
                    <g id="g438" fill="#262E30">
                        <path d="M8.14,0.256363636 L8.12636364,0.256363636 L7.85363636,0.0409090909 C6.42636364,0.0754545455 5.53454545,0.790909091 4.68545455,1.74454545 C4.41730742,1.66940162 4.14029132,1.63057044 3.86181818,1.62909091 C2.76454545,1.62909091 1.77181818,2.27272727 0.909090909,3.54545455 C-0.680909091,5.90909091 0.465454545,8.47909091 0.854545455,9.21090909 C1.24363636,9.94272727 1.63636364,10.4354545 2.28727273,10.4354545 L2.39181818,10.4354545 L2.49818182,10.4154545 C3.30454545,10.2581818 3.47,9.48818182 3.52363636,9.23363636 C3.53789505,9.1539325 3.55950242,9.07571993 3.58818182,9 C3.67,8.88909091 4.04272727,8.74363636 4.34272727,8.62636364 C5.21545455,8.28818182 6.53454545,7.77727273 7.17272727,6.06090909 C7.68090909,4.69 7.67636364,3.71272727 7.31090909,3.16727273 C7.63545455,2.94363636 7.66454545,2.89454545 8.30090909,2.82181818 C8.95272727,2.74636364 9.43545455,2.14636364 9.39181818,1.45818182 C9.36542781,0.786214779 8.8124843,0.255356893 8.14,0.256363636 Z" id="path440"></path>
                    </g>
                </g>
                <g id="Green" transform="translate(4.272727, 12.727273)" fill="#6DA943">
                    <g id="g443">
                        <path d="M0.0681818182,11.5981818 L0.303636364,10.0263636 L0.54,1.29909091 L0.205454545,0.0409090909 L3.58727273,0.572727273 L3,1.37545455 L3,1.59181818 C3.42,1.42090909 3.89818182,0.844545455 4.35636364,0.844545455 C4.97272727,0.844545455 5.43787879,1.16575758 5.75181818,1.80818182 C6.31666667,0.916666667 6.9530303,0.51 7.66090909,0.588181818 C8.71,0.709393939 9.40454545,2.03333333 9.74454545,4.56 C9.88575758,5.58060606 9.97090909,7.26484848 10,9.61272727 L10.2554545,11.3227273 L7.02727273,10.3781818 L7.53909091,9.61181818 C7.63011975,8.86831148 7.67596152,8.11996737 7.67636364,7.37090909 C7.67636364,6.13878788 7.53212121,5.19515152 7.24363636,4.54 C6.88969697,4.57939394 6.56878788,4.97333333 6.28090909,5.72181818 C6.28090909,6.70484848 6.20212121,7.98969697 6.04454545,9.57636364 C6.21484848,9.99454545 6.29363636,10.2693939 6.28090909,10.4009091 L3.27272727,9.96636364 C3.28636364,9.86181818 3.41727273,9.70363636 3.66636364,9.49454545 C3.95363636,7.93515152 4.09757576,6.84727273 4.09818182,6.23090909 C4.09818182,5.62848485 4.00151515,5.23454545 3.80818182,5.04909091 C3.45909091,5.04909091 3.25242424,5.16030303 3.18818182,5.38272727 L2.85909091,6.56454545 L2.76181818,10.1036364 L3.25363636,10.9690909" id="path457"></path>
                    </g>
                </g>
                <g id="hilight" transform="translate(4.454545, 1.272727)" fill="#98C67A">
                    <path d="M7.47454545,12.0436364 C6.76727273,11.9654545 6.13090909,12.3718182 5.56545455,13.2627273 C6.19454545,11.8181818 6.80090909,6.28818182 4.16363636,0.572727273 C3.81818182,-0.181818182 3.44181818,0.16 3.31181818,0.16 C3.10545455,0.16 6.77363636,10.5454545 2.81818182,13.0463636 L2.81818182,12.83 L3.40818182,12.0245455 L0.0263636364,11.4927273 L0.360909091,12.7509091 L0.147272727,20.6809091 C0.944242424,20.4433333 1.77030303,20.2136364 2.62545455,19.9918182 L2.68,18.02 L3.01,16.8381818 C3.07363636,16.6145455 3.28272727,16.5036364 3.62909091,16.5036364 C3.82242424,16.6854545 3.91939394,17.0793939 3.92,17.6854545 C3.92,18.1227273 3.84545455,18.8045455 3.69909091,19.7190909 C4.45363636,19.5372727 5.22818182,19.3569697 6.02272727,19.1781818 C6.07545455,18.4109091 6.10181818,17.7409091 6.10181818,17.1736364 C6.38969697,16.4263636 6.71060606,16.0324242 7.06454545,15.9918182 C7.35363636,16.6469697 7.49787879,17.5906061 7.49727273,18.8227273 L7.49727273,18.8627273 C8.23363636,18.7118182 8.98484848,18.5660606 9.75090909,18.4254545 C9.70727273,17.4063636 9.64454545,16.5963636 9.56181818,16.0109091 C9.22,13.4818182 8.52515152,12.1581818 7.47727273,12.04 L7.47454545,12.0436364 Z" id="path460"></path>
                </g>
                <g id="leaves" transform="translate(1.090909, 1.272727)">
                    <g id="g480" transform="translate(8.181818, 2.818182)">
                        <g id="g482" transform="translate(0.090909, 0.000000)" fill="#308D43">
                            <path d="M0.14,0.0145454545 C-0.104545455,0.0190909091 0.199090909,0.03 0.258181818,0.397272727 C1.27909091,0.472727273 2.23272727,0.652727273 2.91818182,1.55454545 C3.23727273,1.97363636 1.66,2.49181818 2.44545455,4.23090909 C3.35454545,6.23090909 5.45363636,5.80090909 6.25818182,6.73909091 C6.59545455,7.13272727 6.53090909,7.66909091 6.73727273,7.69545455 C6.91909091,7.71909091 8.81545455,4.78636364 7.00363636,2.50545455 C5.03636364,0.0318181818 3.69,1.83636364 3.34727273,1.40363636 C2.38090909,0.181818182 1.16363636,-0.00909090909 0.14,0.0145454545 Z" id="path484"></path>
                        </g>
                        <path d="M3.00909091,1.55363636 C3.32818182,1.97272727 1.75090909,2.49181818 2.53636364,4.23090909 C3.44545455,6.23090909 5.54454545,5.80090909 6.34909091,6.73818182 C6.68636364,7.13181818 6.62181818,7.66818182 6.82818182,7.69454545 C7.01,7.71909091 8.90636364,4.78545455 7.09454545,2.50454545 C5.12727273,0.0318181818 3.78090909,1.83545455 3.43818182,1.40363636 C3.21090909,1.19545455 2.87545455,1.36909091 3.00909091,1.55363636 Z" id="path491" fill="url(#linearGradient-1)"></path>
                        <path d="M6.82818182,7.69454545 C7.01,7.71909091 8.90545455,4.78545455 7.09363636,2.50454545 C5.31090909,0.263636364 4.03818182,1.53636364 3.56,1.47090909 C3.51181818,1.46454545 3.30181818,1.69818182 3.30090909,2.00363636 C3.29636364,2.92909091 3.63090909,3.46727273 4.11454545,4.08 C4.75909091,4.89818182 6.10636364,5.22090909 6.44636364,5.69818182 C6.99727273,6.46545455 6.90090909,7.04363636 6.77727273,7.67545455 C6.79189753,7.68686262 6.80966193,7.69352427 6.82818182,7.69454545 Z" id="path498" fill="url(#linearGradient-2)"></path>
                        <path d="M7.15363636,2.51545455 C5.50363636,0.442727273 4.23090909,1.36363636 3.68,1.46454545 L3.64,1.49909091 C5.00363636,1.18727273 5.63272727,1.05090909 6.86363636,2.37090909 C8.29363636,3.90363636 7.70181818,6.26545455 7.15727273,7.28636364 C7.68363636,6.40545455 8.55,4.27 7.15727273,2.51545455 L7.15363636,2.51545455 Z" id="path500" fill="#6FBE47"></path>
                        <path d="M7.33090909,6.96272727 C7.34454545,6.93636364 6.88363636,7.64090909 6.77545455,7.46636364 C6.75707732,7.42591429 6.74452818,7.38306358 6.73818182,7.33909091 C6.60090909,6.47272727 6.11818182,6.32636364 5.37454545,6.04363636 C4.63090909,5.76090909 3.61272727,5.65727273 2.85090909,4.56363636 C2.25363636,3.70545455 2.35272727,2.92727273 2.68363636,2.39181818 C2.95636364,1.94272727 3.14909091,1.75545455 3.01363636,1.81818182 C2.80545455,2.22 1.90545455,2.82909091 2.53818182,4.23 C3.44727273,6.23 5.54545455,5.8 6.35,6.73818182 C6.68727273,7.13181818 6.62272727,7.66818182 6.83,7.69454545 C6.84582094,7.69224052 6.86048167,7.68491015 6.87181818,7.67363636 C7.09090909,7.46090909 7.23090909,7.15272727 7.33090909,6.96272727 Z" id="path502" fill="#308D43"></path>
                        <path d="M3.48818182,3.09475864 C3.78818182,2.86627446 5.53818182,2.28895232 7.16,2.79951571 C5.50727273,2.46666223 3.76090909,2.98662827 3.48818182,3.09475864 Z" id="path509" fill="url(#linearGradient-3)"></path>
                        <path d="M3.30272727,2.29584523 C3.55909091,2.06309324 5.05727273,1.47830387 6.45,2.01751264 C5.03090909,1.66256586 3.53545455,2.18528804 3.30272727,2.29584523 Z" id="path516" fill="url(#linearGradient-4)"></path>
                        <path d="M3.92,3.86940299 C4.21272727,3.63947849 5.92,3.05822934 7.51272727,3.58153751 C5.89454545,3.24032955 4.18636364,3.76087862 3.92,3.86940299 Z" id="path523" fill="url(#linearGradient-5)"></path>
                        <path d="M4.53363636,4.63207967 C4.80636364,4.34616626 6.36363636,3.70770708 7.74090909,4.55696682 C6.32636364,3.95606406 4.77727273,4.50850692 4.53363636,4.63207967 Z" id="path530" fill="url(#linearGradient-6)"></path>
                        <path d="M5.54,5.19445742 C5.74636364,4.97268776 6.86090909,4.54600813 7.77363636,5.38769531 C6.81818182,4.7561057 5.71454545,5.10756522 5.54,5.19445742 Z" id="path537" fill="url(#linearGradient-7)"></path>
                        <path d="M6.39454545,5.6748464 C6.52727273,5.53014534 7.11,5.44477172 7.68363636,6.07132729 C7.15181818,5.6748464 6.49818182,5.62564804 6.39454545,5.6748464 Z" id="path544" fill="url(#linearGradient-8)"></path>
                        <path d="M3.48454545,3.0152912 C3.78545455,2.78647528 5.53545455,2.20974663 7.15636364,2.71989359 C5.50454545,2.38886073 3.75636364,2.90650986 3.48454545,3.0152912 Z" id="path551" fill="url(#linearGradient-9)"></path>
                        <path d="M3.29909091,2.21263354 C3.55545455,1.97915306 5.05363636,1.39593627 6.44545455,1.93361952 C5.02727273,1.58291441 3.53181818,2.10606569 3.29909091,2.21263354 Z" id="path558" fill="url(#linearGradient-10)"></path>
                        <path d="M3.91636364,3.79112183 C4.20909091,3.56266242 5.92181818,2.98045939 7.50909091,3.50186273 C5.89090909,3.16193723 4.18181818,3.68334058 3.91636364,3.79112183 Z" id="path565" fill="url(#linearGradient-11)"></path>
                        <path d="M4.53,4.55338923 C4.80272727,4.26717032 6.36090909,3.62924173 7.73727273,4.47819612 C6.32181818,3.87180013 4.77363636,4.42847165 4.53,4.55338923 Z" id="path572" fill="url(#linearGradient-12)"></path>
                        <path d="M5.53545455,5.11609571 C5.74181818,4.89384623 6.85727273,4.46624343 7.77,5.30845199 C6.81818182,4.67549587 5.71181818,5.03031521 5.53545455,5.11609571 Z" id="path579" fill="url(#linearGradient-13)"></path>
                        <path d="M6.39181818,5.5961366 C6.52272727,5.45115718 7.10727273,5.36416953 7.68,5.99193043 C7.14818182,5.58888763 6.49454545,5.5482934 6.39181818,5.5961366 Z" id="path586" fill="url(#linearGradient-14)"></path>
                        <path d="M3.30272727,2.26454545 C2.68545455,2.56 2.43181818,3.08272727 2.43272484,3.69454545 C2.57090909,2.94818182 2.97636364,2.57272727 3.30272727,2.26454545 Z" id="path588" fill="#308D43"></path>
                        <path d="M3.54545455,3.00545455 C3,3.30090909 2.77727273,3.83090909 2.78181818,4.44363636 C2.90181818,3.69181818 3.26,3.31545455 3.54545455,3.00545455 Z" id="path590" fill="#308D43"></path>
                        <path d="M3.88818182,3.85363636 C3.43363636,4.20181818 3.31272727,4.69363636 3.41454545,5.21727273 C3.40454545,4.55363636 3.67363636,4.16818182 3.88818182,3.85363636 Z" id="path592" fill="#308D43"></path>
                        <path d="M4.82522193,4.47272727 C4.13661003,4.89181818 4.20887177,5.34636364 4.74020811,5.77090909 C4.30026162,5.20181818 4.59568463,4.79909091 4.82522193,4.47272727 Z" id="path594" fill="#308D43"></path>
                        <path d="M5.45170863,5.06909091 C5.24343413,5.51545455 5.44081055,5.93818182 5.86825762,6.29727273 C5.43838875,5.79363636 5.44928683,5.39454545 5.45170863,5.06909091 Z" id="path596" fill="#308D43"></path>
                        <path d="M6.7498946,5.68636364 C6.06097315,5.99090909 6.18310013,6.36 6.78120921,6.72181818 C6.40012344,6.38600987 6.38917729,6.02406266 6.7498946,5.68636364 Z" id="path598" fill="#308D43"></path>
                        <path d="M3.26090909,2.22727273 C2.64363636,2.52181818 2.39,3.04545455 2.39181818,3.65545455 C2.52909091,2.90909091 2.93545455,2.53454545 3.26090909,2.22727273 Z" id="path605" fill="url(#linearGradient-15)"></path>
                        <path d="M3.50636364,2.96818182 C2.96090909,3.26363636 2.73727273,3.79272727 2.74272727,4.40636364 C2.86090909,3.65363636 3.21909091,3.27818182 3.50636364,2.96818182 Z" id="path612" fill="url(#linearGradient-16)"></path>
                        <path d="M3.84636364,3.81818182 C3.39181818,4.16545455 3.27181818,4.65727273 3.37363636,5.18181818 C3.36363636,4.51636364 3.63636364,4.13181818 3.84636364,3.81818182 Z" id="path619" fill="url(#linearGradient-17)"></path>
                        <path d="M4.78408558,4.43454545 C4.09620461,4.85454545 4.16626656,5.30909091 4.70128509,5.73272727 C4.25755941,5.16454545 4.55266884,4.76272727 4.78408558,4.43454545 Z" id="path626" fill="url(#linearGradient-18)"></path>
                        <path d="M5.41085807,5.03090909 C5.20167445,5.47727273 5.39876653,5.9 5.82680699,6.25818182 C5.39755738,5.75727273 5.40723061,5.35727273 5.41085807,5.03090909 Z" id="path633" fill="url(#linearGradient-19)"></path>
                        <path d="M6.70845196,5.65 C6.01962334,5.95454545 6.14118133,6.32090909 6.73962067,6.68454545 C6.35868702,6.34912676 6.34778652,5.9873194 6.70845196,5.65 Z" id="path640" fill="url(#linearGradient-20)"></path>
                        <path d="M3.48090909,1.44181818 C3.46499601,1.43109393 3.45062095,1.41824813 3.43818182,1.40363636 C2.47181818,0.181818182 1.22818182,-0.0145454545 0.206363636,0.00818181818 C0.169417531,0.00724473201 0.133231709,0.0187729587 0.103636364,0.0409090909 C0.0454545455,0.112727273 0.0545454545,0.218181818 0.103636364,0.24 C0.183636364,0.276363636 1.12818182,0.279090909 1.77272727,0.512727273 C2.31644469,0.715486526 2.79387605,1.06396739 3.15272727,1.52 C3.33454545,1.76181818 3.47181818,1.61090909 3.48,1.44 L3.48090909,1.44181818 Z" id="path659" fill="url(#linearGradient-21)"></path>
                    </g>
                    <g id="g661">
                        <g id="g663" transform="translate(0.090909, 0.000000)" fill="#308D43">
                            <path d="M6.95272727,0.0818181818 C7.18181818,0.0772727273 6.54909091,0.193636364 6.64636364,0.503636364 C5.77181818,0.636363636 4.96727273,0.885454545 4.40727273,1.75454545 C4.12727273,2.18818182 5.61818182,2.63636364 4.96,4.40727273 C4.20090909,6.45454545 2.22454545,6.11181818 1.51545455,7.08545455 C1.21818182,7.49272727 1.3,8.02545455 1.11,8.06181818 C0.942727273,8.09454545 -0.949090909,5.24363636 0.641818182,2.88909091 C2.36909091,0.330909091 3.70090909,2.07090909 4.00545455,1.62363636 C4.84909091,0.356363636 6,0.106363636 6.95272727,0.0818181818 Z" id="path665"></path>
                        </g>
                        <path d="M4.49727273,1.75454545 C4.21818182,2.18818182 5.70909091,2.63636364 5.05090909,4.40727273 C4.29181818,6.45454545 2.31454545,6.11181818 1.60545455,7.08545455 C1.30909091,7.49272727 1.39,8.02545455 1.2,8.06181818 C1.03363636,8.09454545 -0.858181818,5.24363636 0.732727273,2.88909091 C2.46,0.330909091 3.79090909,2.07090909 4.09636364,1.62363636 C4.29454545,1.40545455 4.61454545,1.56363636 4.49727273,1.75454545 Z" id="path672" fill="url(#linearGradient-22)"></path>
                        <path d="M1.2,8.06181818 C1.03363636,8.09454545 -0.858181818,5.24363636 0.732727273,2.88909091 C2.3,0.57 3.53818182,1.78272727 3.98090909,1.69727273 C4.02636364,1.68818182 4.23090909,1.91181818 4.24454545,2.21727273 C4.28727273,3.14181818 3.99818182,3.69454545 3.57545455,4.32818182 C3.00909091,5.17272727 1.76818182,5.55818182 1.47090909,6.05 C0.990909091,6.84272727 1.10272727,7.41363636 1.24545455,8.04090909 C1.23279153,8.05235366 1.21693011,8.05964991 1.2,8.06181818 Z" id="path679" fill="url(#linearGradient-23)"></path>
                        <path d="M0.676363636,2.90272727 C2.13090909,0.756363636 3.35090909,1.62 3.86818182,1.69636364 L3.90909091,1.72727273 C2.62727273,1.47727273 2.03181818,1.37090909 0.941818182,2.74454545 C-0.325454545,4.34090909 0.325454545,6.67454545 0.875454545,7.66909091 C0.348181818,6.81272727 -0.545454545,4.71818182 0.676363636,2.90272727 Z" id="path681" fill="#6FBE47"></path>
                        <path d="M0.700909091,7.35454545 C0.686363636,7.32727273 1.14636364,8.01090909 1.23909091,7.83090909 C1.25669306,7.78980216 1.26803126,7.74628798 1.27272727,7.70181818 C1.36363636,6.83181818 1.80727273,6.66272727 2.49090909,6.34636364 C3.17454545,6.03 4.11454545,5.88090909 4.77909091,4.75363636 C5.3,3.86909091 5.17363636,3.09636364 4.84363636,2.57181818 C4.57090909,2.13636364 4.38272727,1.95818182 4.51181818,2.01363636 C4.72181818,2.40636364 5.58636364,2.97454545 5.05727273,4.40272727 C4.29272727,6.45454545 2.31545455,6.11181818 1.60636364,7.08454545 C1.31,7.49272727 1.39090909,8.02454545 1.20090909,8.06181818 C1.18587909,8.0605475 1.17174919,8.05412481 1.16090909,8.04363636 C0.948181818,7.84 0.801818182,7.53909091 0.700909091,7.35454545 Z" id="path683" fill="#308D43"></path>
                        <path d="M4.11545455,3.41265852 C3.82636364,3.14329469 2.17272727,2.52458125 0.682727273,3.26092082 C2.20909091,2.74571837 3.85818182,3.29267987 4.11545455,3.41265852 Z" id="path690" fill="url(#linearGradient-24)"></path>
                        <path d="M4.25454545,2.59115364 C4.00727273,2.326835 2.58818182,1.70143822 1.31181818,2.43775443 C2.61909091,1.92445707 4.03272727,2.47197425 4.25454545,2.59115364 Z" id="path697" fill="url(#linearGradient-25)"></path>
                        <path d="M3.74636364,4.20390752 C3.46454545,3.93668091 1.84545455,3.31580549 0.387272727,4.05039436 C1.88090909,3.53868384 3.49454545,4.0845084 3.74636364,4.20390752 Z" id="path704" fill="url(#linearGradient-26)"></path>
                        <path d="M3.20272727,4.85611849 C2.93727273,4.59882192 1.46818182,4.0819212 0.211818182,4.97149811 C1.51090909,4.31037286 2.97181818,4.75112303 3.20272727,4.85611849 Z" id="path711" fill="url(#linearGradient-27)"></path>
                        <path d="M2.29,5.45249815 C2.09090909,5.27927264 1.04090909,4.97305464 0.215454545,5.74418756 C1.08454545,5.14628015 2.12454545,5.39103103 2.29,5.45249815 Z" id="path718" fill="url(#linearGradient-28)"></path>
                        <path d="M1.51636364,6.00636918 C1.38909091,5.88021509 0.844545455,5.85119965 0.326363636,6.43150844 C0.810909091,6.04800002 1.41909091,5.97104603 1.51636364,6.00636918 Z" id="path725" fill="url(#linearGradient-29)"></path>
                        <path d="M4.11545455,3.33327703 C3.82636364,3.06465952 2.17272727,2.44495421 0.682727273,3.18129607 C2.20909091,2.66762399 3.85818182,3.21428419 4.11545455,3.33327703 Z" id="path732" fill="url(#linearGradient-30)"></path>
                        <path d="M4.25454545,2.51232973 C4.00727273,2.24491685 2.58818182,1.62409488 1.31181818,2.35918579 C2.61909091,1.84438655 4.03272727,2.39217064 4.25454545,2.51232973 Z" id="path739" fill="url(#linearGradient-31)"></path>
                        <path d="M3.74636364,4.12477868 C3.46454545,3.85810803 1.84545455,3.23587653 0.387272727,3.97206985 C1.88090909,3.45924168 3.49454545,4.00625839 3.74636364,4.12477868 Z" id="path746" fill="url(#linearGradient-32)"></path>
                        <path d="M3.20272727,4.77631653 C2.93727273,4.51999149 1.46818182,4.00156832 0.211818182,4.89177826 C1.51090909,4.23249178 2.97181818,4.67240097 3.20272727,4.77631653 Z" id="path753" fill="url(#linearGradient-33)"></path>
                        <path d="M2.29,5.37430669 C2.09181818,5.19279505 1.04090909,4.89547231 0.215454545,5.66272088 C1.08454545,5.07475681 2.12454545,5.30971973 2.29,5.37430669 Z" id="path760" fill="url(#linearGradient-34)"></path>
                        <path d="M1.51636364,5.92928868 C1.38909091,5.80942104 0.844545455,5.77282986 0.326363636,6.3570269 C0.810909091,5.96840338 1.41909091,5.89143574 1.51636364,5.92928868 Z" id="path767" fill="url(#linearGradient-35)"></path>
                        <path d="M4.25454545,2.47636364 C4.84090909,2.74454545 5.10090909,3.25818182 5.12545455,3.86545455 C4.96454545,3.12727273 4.57181818,2.77090909 4.25454545,2.47636364 Z" id="path769" fill="#308D43"></path>
                        <path d="M4.05818182,3.22909091 C4.57818182,3.50181818 4.80818182,4.01909091 4.83,4.63181818 C4.68727273,3.88545455 4.33909091,3.52545455 4.05818182,3.22909091 Z" id="path771" fill="#308D43"></path>
                        <path d="M3.77545455,4.09090909 C4.21545455,4.41818182 4.34727273,4.90909091 4.27272727,5.43181818 C4.25727273,4.76909091 3.98909091,4.39636364 3.77545455,4.09090909 Z" id="path773" fill="#308D43"></path>
                        <path d="M3.19636364,4.73909091 C3.83699672,5.14545455 3.81504356,5.60090909 3.39593781,6.03545455 C3.7212437,5.45454545 3.42587393,5.06181818 3.19636364,4.73909091 Z" id="path775" fill="#308D43"></path>
                        <path d="M2.53151997,5.37636364 C2.79490848,5.81454545 2.60243226,6.24454545 2.15090909,6.61636364 C2.5966435,6.09909091 2.55756938,5.7 2.53151997,5.37636364 Z" id="path777" fill="#308D43"></path>
                        <path d="M1.49727273,6.03727273 C2.17278624,6.33181818 2.11418004,6.70181818 1.61756965,7.07181818 C1.91950638,6.73085391 1.87770267,6.37134481 1.49727273,6.03727273 Z" id="path779" fill="#308D43"></path>
                        <path d="M4.29090909,2.43727273 C4.87909091,2.70454545 5.13727273,3.21818182 5.16181818,3.82636364 C5,3.09090909 4.60818182,2.73181818 4.29090909,2.43727273 Z" id="path786" fill="url(#linearGradient-36)"></path>
                        <path d="M4.09090909,3.19 C4.61181818,3.46272727 4.84181818,3.97818182 4.86181818,4.59090909 C4.72727273,3.84636364 4.37545455,3.48545455 4.09090909,3.19 Z" id="path793" fill="url(#linearGradient-37)"></path>
                        <path d="M3.81818182,4.05181818 C4.25545455,4.38 4.38818182,4.86545455 4.31636364,5.39181818 C4.29272727,4.72727273 4.02636364,4.35727273 3.81818182,4.05181818 Z" id="path800" fill="url(#linearGradient-38)"></path>
                        <path d="M3.23272727,4.69909091 C3.87336036,5.10545455 3.8514072,5.56090909 3.43230144,5.99545455 C3.75760734,5.41818182 3.46423331,5.02363636 3.23272727,4.69909091 Z" id="path807" fill="url(#linearGradient-39)"></path>
                        <path d="M2.56766471,5.33636364 C2.83090175,5.77454545 2.63998258,6.20363636 2.18727273,6.57636364 C2.63275079,6.06090909 2.59369915,5.66090909 2.56766471,5.33636364 Z" id="path814" fill="url(#linearGradient-40)"></path>
                        <path d="M1.53363636,6 C2.21014765,6.29545455 2.14864662,6.66363636 1.65663842,7.03363636 C1.95693785,6.69289964 1.91418804,6.33365553 1.53363636,6 Z" id="path821" fill="url(#linearGradient-41)"></path>
                        <path d="M4.05363636,1.66363636 C4.06859405,1.65226679 4.08150595,1.63843261 4.09181818,1.62272727 C4.94,0.356363636 6.09181818,0.106363636 7.04363636,0.0772727273 C7.07836763,0.0760853849 7.1125324,0.0863028852 7.14090909,0.106363636 C7.19727273,0.176363636 7.19454545,0.280909091 7.14818182,0.305454545 C7.07454545,0.345454545 6.19545455,0.391818182 5.60272727,0.655454545 C5.09864456,0.891448072 4.66976447,1.26243092 4.36363636,1.72727273 C4.20090909,1.97727273 4.06909091,1.83818182 4.05363636,1.66363636 Z" id="path840" fill="url(#linearGradient-42)"></path>
                    </g>
                </g>
            </g>
        </g>
    </g>
</svg>