<svg width="89" height="26" viewBox="0 0 89 26" xmlns="http://www.w3.org/2000/svg"><title>Membean Logo</title><g fill="none" fill-rule="evenodd"><path d="M81.142 23.578l7.663.6-1.148-4.511c0-3.2-.088-5.4-.243-6.778-.397-3.445-1.303-5.8-2.805-7.178-1.038-.955-2.208-1.444-3.445-1.422l.243-1.2-8.591-.111.22 1.489c-1.39-1.111-3.135-1.69-5.256-1.69-.309 0-.84.045-3.313.468l-4.174.333.133.378c-.994-.89-2.01-1.378-3.092-1.49-.177-.022-.353-.022-.508-.022-1.26 0-3.468.556-4.638 4.09-1.281-1.2-3.026-1.756-5.08-1.578V3.8L47.86 0l-8.966.178.95 3.733.021 2.711a3.679 3.679 0 0 0-1.568-.555c-.154-.022-.309-.022-.442-.022-.684 0-1.568.177-2.473.866l.265-.377-9.85-1.556c-1.281-1.556-2.584-2.356-3.976-2.511-.176-.023-.353-.023-.508-.023-1.303 0-3.644.6-4.748 4.512-.11.355-.199.71-.265 1.089-.663-1.023-1.612-1.823-2.982-1.978-.132-.022-.242-.022-.375-.022-.685 0-1.568.177-2.473.866l.265-.377L0 4.822l1.148 4.334-.33 12.066L.11 26l9.674-1.933-.287-.489 3.335.489v-.022l6.25 1.844-.486-3.333c.729.6 1.656.978 2.805.978 1.59 0 3.048-.667 4.329-2L25.067 26l9.673-1.933-.287-.489 3.335.489v-.022l6.25 1.844-.265-1.822h3.446v-.356c.243.022.508.045.75.045 1.59 0 3.424-.622 4.77-2.934.818 1.556 2.099 2.712 4.153 2.712 1.745 0 3.335-.823 4.748-2.423.288-.333.53-.622.73-.91l.242-.156c.31.377.64.733 1.038 1.089.928.866 1.944 1.488 3.004 1.866l-.353.889L74.78 26l-.132-2.489 6.515.134-.022-.067z" fill="#21292E"/><path d="M41.698 22.51l.154 1.068-4.572-1.356.73-1.089c.132-1.067.198-2.133.198-3.2 0-1.755-.199-3.11-.619-4.044-.507.066-.95.622-1.369 1.689 0 1.4-.11 3.244-.331 5.51.243.6.353 1 .331 1.179l-4.262-.623c.022-.155.198-.377.552-.666.42-2.222.618-3.778.618-4.667 0-.867-.132-1.422-.42-1.689-.485 0-.794.156-.883.467l-.464 1.689-.132 5.044.707 1.244-4.528.89.331-2.245.332-12.467-.464-1.8 4.792.756-.839 1.156v.31c.64-.71 1.281-1.066 1.922-1.066.883 0 1.523.467 1.987 1.378.795-1.267 1.7-1.845 2.717-1.734 1.48.178 2.473 2.067 2.96 5.667.198 1.467.33 3.867.353 7.222l.17 1.173.271-1.506-.176-16.822-.42-1.667 4.262-.089-.33 1.69V7.6c.927-.311 1.788-.467 2.583-.467 1.7 0 2.938.645 3.777 1.934.684 1.089 1.038 2.533 1.038 4.333a14.49 14.49 0 0 1-.088 2c-.53 4.533-2.054 6.8-4.528 6.8-.817 0-1.7-.267-2.628-.822v1.133h-3.732zm44.723-.088l-4.33-.333.288-1.845v-.133c0-.422 0-1.067.022-1.933.022-.845.022-1.49.022-1.934 0-3.333-.42-5.355-1.237-6.066-.773.066-1.612 1-2.54 2.8l-.199 6.933.442 2.111-4.461-.089.53-2.133.353-12.667-.287-1.933 4.152.067-.397 2v.4c.861-.778 1.7-1.156 2.518-1.156.729 0 1.413.311 2.098.933 1.126 1.045 1.877 3.045 2.208 6 .155 1.29.221 3.511.221 6.645v.133l.597 2.2zM74.097 12.89c-.508 5.6-.95 8.71-1.303 9.356l.088 1.666-3.953-.978.397-1c-1.568-.022-3.003-.622-4.306-1.822-1.348-1.222-2.032-2.6-2.032-4.156 0-2.822 2.363-4.977 7.111-6.466-.574-.822-1.369-1.245-2.407-1.245-.64 0-1.259.178-1.811.556l-1.413.955-1.48-4.155 1.81-.133c1.746-.29 2.783-.445 3.093-.445 2.032 0 3.6.622 4.704 1.845 1.06 1.2 1.59 2.822 1.59 4.888-.044.334-.044.712-.088 1.134zm-3.512.11c-2.805.934-4.174 1.934-4.13 2.979.044.777.442 1.4 1.237 1.844.574.333 1.17.511 1.789.511.155 0 .243 0 .287-.022.155-.111.287-.222.42-.333.066-1.245.198-2.911.397-4.978zm-7.62-1.399l-1.457 2.444-5.19.4c.177 2.178.53 3.445 1.06 3.8.464.045.884-.266 1.237-.933.199-.533.42-1.044.64-1.578l3.38 2.467-1.48.956c-.2.288-.486.644-.84 1.066C59.3 21.4 58.196 22 57.004 22c-2.43 0-3.644-3-3.644-9.022 0-2.045.198-3.756.596-5.156.64-2.266 1.744-3.31 3.29-3.133 1.856.178 3.777 2.489 5.72 6.911zm-4.328-.889c-.265-.733-.42-1.155-.486-1.267-.243-.488-.552-.777-.927-.844-.442.2-.752.956-.906 2.267l2.319-.156zm-10.601 7.933c.353-.355.662-1.177.905-2.488.2-1.067.31-1.978.31-2.756 0-1.844-.442-2.756-1.348-2.756-.728 0-1.546.245-2.473.756v4.978l.309.622c.95 1.156 1.723 1.711 2.297 1.644zm-20.451-6.577l-.508 1.777-6.273.578c.177 2.178.53 3.445 1.06 3.8.597.067 1.06-.422 1.414-1.422-.044-.289-.088-.511-.088-.711 0-.178.022-.311.088-.4l4.13 1.955-1.789 1.49c-.199.288-.486.644-.84 1.066-1.015 1.178-2.12 1.778-3.312 1.778-2.43 0-3.644-3-3.644-9.022 0-2.045.199-3.756.618-5.156.64-2.267 1.723-3.311 3.269-3.133 1.855.177 3.82 2.644 5.875 7.4zm-4.108-.667c-.11-.289-.265-.689-.464-1.244-.177-.49-.486-.778-.928-.867-.441.2-.75.955-.883 2.267l2.275-.156zM2.429 24l.332-2.245.331-12.444-.464-1.8 4.793.756-.84 1.155v.311c.597-.244 1.281-1.066 1.922-1.066.883 0 1.524.466 1.988 1.377.795-1.266 1.7-1.844 2.694-1.733 1.48.178 2.474 2.067 2.96 5.667.198 1.466.33 3.866.353 7.2l.353 2.444-4.571-1.355.728-1.09c.133-1.066.2-2.133.2-3.2 0-1.755-.2-3.11-.62-4.044-.507.067-.949.622-1.369 1.69 0 1.4-.11 3.244-.33 5.488.242.6.353 1 .33 1.178l-4.262-.622c.022-.156.199-.378.552-.667.398-2.222.618-3.778.618-4.644 0-.867-.132-1.423-.42-1.69-.485 0-.794.156-.883.467l-.463 1.69-.133 5.044.707 1.244L2.429 24z" fill="#6CA743"/><path d="M52.615 12.186c-1.15.011-2.294.034-3.438.07-.16-1.078-.58-1.612-1.274-1.612-.728 0-1.546.245-2.473.756v1.021c-1.183.068-2.372.151-3.575.251l-.091-8.694-.42-1.667 4.262-.089-.33 1.69V7.6c.927-.311 1.788-.467 2.583-.467 1.7 0 2.938.645 3.777 1.934.523.832.853 1.872.98 3.12zm-11.655.563c-4.085.367-8.342.929-13.029 1.741l.14-5.246-.464-1.8 4.792.756-.839 1.156v.31c.64-.71 1.281-1.066 1.922-1.066.883 0 1.523.467 1.987 1.378.795-1.267 1.7-1.845 2.717-1.734 1.311.158 2.241 1.66 2.774 4.505zm41.329.643c-.183-1.665-.553-2.736-1.103-3.214-.773.066-1.612 1-2.54 2.8l-.005.2-3.493-.204.163-5.84-.287-1.934 4.152.067-.397 2v.4c.861-.778 1.7-1.156 2.518-1.156.729 0 1.413.311 2.098.933 1.126 1.045 1.877 3.045 2.208 6l.024.209a72.122 72.122 0 0 0-3.338-.261zm-8.195-.479c-3.39-.193-6.543-.363-9.543-.49 1.18-1.166 3.028-2.144 5.548-2.934-.574-.822-1.369-1.245-2.407-1.245-.64 0-1.259.178-1.811.556l-1.413.955-1.48-4.155 1.81-.133c1.746-.29 2.783-.445 3.093-.445 2.032 0 3.6.622 4.704 1.845 1.06 1.2 1.59 2.822 1.59 4.888-.044.334-.044.712-.088 1.134l-.003.024zm-11.572-.57c-3.173-.115-6.189-.177-9.153-.162.046-1.697.241-3.145.586-4.359.64-2.266 1.744-3.31 3.29-3.133 1.856.178 3.777 2.489 5.72 6.911l-.443.743zM20.96 15.818c-.968.2-1.956.41-2.966.629a31.73 31.73 0 0 1-.171-3.491c0-2.045.199-3.756.618-5.156.64-2.267 1.723-3.311 3.269-3.133 1.855.177 3.82 2.644 5.875 7.4l-.508 1.777-6.273.578c.042.517.094.982.156 1.396zM2.805 20.09l.287-10.779-.464-1.8 4.793.756-.84 1.155v.311c.597-.244 1.281-1.066 1.922-1.066.883 0 1.524.466 1.988 1.377.795-1.266 1.7-1.844 2.694-1.733 1.48.178 2.474 2.067 2.96 5.667.097.718.178 1.659.239 2.824a342.47 342.47 0 0 0-3.181.726c-.032-1.539-.231-2.743-.614-3.595-.508.067-.95.622-1.37 1.69 0 .69-.026 1.49-.08 2.392a434.82 434.82 0 0 0-3.264.794c.165-1.088.252-1.907.252-2.453 0-.867-.132-1.423-.42-1.69-.485 0-.794.156-.883.467l-.463 1.69-.063 2.379c-1.138.285-2.302.581-3.493.888zm55.832-9.379c-.265-.733-.42-1.155-.486-1.267-.243-.488-.552-.777-.927-.844-.442.2-.752.956-.906 2.267l2.319-.156zm-35.16.689c-.11-.289-.265-.689-.464-1.244-.177-.49-.486-.778-.928-.867-.441.2-.75.955-.883 2.267l2.275-.156z" fill="#9FC874"/></g></svg>