<?xml version="1.0" encoding="UTF-8"?>
<svg width="19px" height="26px" viewBox="0 0 19 26" version="1.1" xmlns="http://www.w3.org/2000/svg" xmlns:xlink="http://www.w3.org/1999/xlink">
    <!-- Generator: Sketch 51.3 (57544) - http://www.bohemiancoding.com/sketch -->
    <title>Membean Logo</title>
    <desc>Created with Sketch.</desc>
    <defs>
        <path d="M7.69398994,1.96138964 C8.13840281,3.77520582 10.659982,12.2393361 7.14532206,14.4590494 L7.14464599,14.2436244 L7.73222787,13.4406139 L4.36246481,12.9112829 L4.69566341,14.1646279 L4.4606669,22.8640286 L4.22567038,24.4309136 L7.40020697,23.8033805 L6.91001185,22.9416662 L7.00640209,19.4149066 L7.3348899,18.2400146 C7.39893868,18.017701 7.60458328,17.9067254 7.95236725,17.9067254 C8.14487596,18.0896314 8.24180976,18.4816244 8.24180976,19.0824328 C8.24180976,19.695924 8.09794913,20.7809484 7.81158676,22.3342446 C7.5629108,22.5429693 7.43263902,22.7004188 7.41914077,22.8044188 L10.4165693,23.2350948 C10.4297052,23.1042794 10.3507087,22.8302376 10.1810293,22.4127882 C10.3381164,20.8317707 10.4165693,19.551701 10.4165693,18.5723979 C10.7033847,17.8277289 11.0234474,17.4361889 11.3761233,17.3966906 C11.6633916,18.0501331 11.8071617,18.9907533 11.8071617,20.2182794 C11.8071617,20.9624955 11.7615937,21.7071645 11.6703672,22.4512899 L11.1603324,23.2152551 L14.3735519,24.1564188 L14.1196216,22.4517429 C14.0924439,20.1139171 14.0077401,18.4351505 13.86397,17.4168927 C13.5240676,14.8970669 12.8324857,13.5769554 11.7875031,13.4594571 C11.0831066,13.3814523 10.4503921,13.7852449 9.88908879,14.671738 C10.4158138,13.4481803 10.9263546,9.33727418 9.4932442,4.66261146 C10.5086851,4.73829687 11.4570692,4.91892413 12.1391826,5.81556585 C12.4570711,6.23310592 10.8853847,6.75020697 11.6681024,8.48287596 C12.5706739,10.4804369 14.6651686,10.0475868 15.4672732,10.9821373 C15.8031895,11.3742209 15.7400467,11.9087157 15.9447854,11.935078 C16.1251547,11.9591756 18.0151826,9.03322439 16.2096774,6.76325226 C14.2493498,4.2986878 12.9079491,6.0963115 12.5666878,5.66563554 C11.6038353,4.44581716 10.3914823,4.25766592 9.37219833,4.28071398 C9.12949336,3.53945733 8.83721609,2.78576572 8.4878223,2.0287338 C8.34055457,1.70950008 8.18887329,1.58711754 8.05310079,1.55204716 C8.06302854,1.54295155 8.05155401,1.53919956 8.00630592,1.54024181 C7.99786202,1.54045271 7.98940266,1.54068143 7.98092821,1.54092852 C7.95654808,1.53960786 7.93286421,1.5406839 7.91001272,1.54342291 C6.97943328,1.58185863 5.88164741,1.85582896 5.06495401,3.07605366 C4.76554634,3.52158676 3.44063345,1.78755889 1.71756725,4.3377331 C0.131839024,6.68661115 2.0171561,9.52441603 2.18339303,9.49234634 C2.37273101,9.45556585 2.29165087,8.92541951 2.58770662,8.51875052 C3.29414564,7.54914077 5.26407596,7.88686899 6.02061254,5.85026272 C6.67659164,4.08334983 5.19087735,3.63872265 5.46935819,3.20714077 C6.02616626,2.34283223 6.82515745,2.08970484 7.69398994,1.96138964 Z M9.47938081,4.61756939 C9.47228727,4.58719604 9.46347614,4.55960038 9.45353237,4.5345244 C9.46221701,4.56222536 9.47083307,4.58990735 9.47938096,4.61756988 Z M7.58348771,0.137109503 L7.91804181,0.090574216 C8.41847387,0.090574216 8.85521951,0.339612544 9.21650174,0.830804181 C9.49996152,1.21582409 9.90274578,2.03158954 10.3026529,3.12750131 C11.3750606,3.26700346 12.2823746,3.69765262 13.0125923,4.41368571 C13.2876307,4.32562997 13.6436585,4.23648711 14.0646411,4.23648711 C15.1421463,4.23648711 16.1547875,4.82425017 17.0761115,5.98147666 C18.2724739,7.48530941 18.4167875,9.56530941 17.4625784,11.5452955 C16.9879652,12.528947 16.5512195,12.9301805 15.9565714,12.9301805 L15.8837352,12.9301805 L15.8131638,12.9210307 C14.9943902,12.814947 14.7834007,12.0566892 14.7146411,11.8075603 C14.6939861,11.7334557 14.6632753,11.6225707 14.6457003,11.5948495 C14.5405226,11.4724592 14.1208084,11.342278 13.7839861,11.2374627 C13.189153,11.0523011 12.4011335,10.8069817 11.7117677,10.2227353 C11.7312122,10.8170086 11.72263,11.4153394 11.6798885,12.01017 C11.7663136,12.011076 11.8526481,12.0163303 11.9381672,12.0259331 C14.5282021,12.3171875 15.0154077,15.931278 15.175122,17.1187624 C15.3250523,18.1805045 15.4122927,19.855285 15.4408293,22.228623 L15.9859233,25.8809436 L11.5973589,24.5959819 L11.5956376,24.6166369 L9.25029268,24.2789087 L9.44588153,24.6231596 L2.64538676,25.9668251 L3.14663415,22.6290411 L3.37474564,14.1928111 L2.57182578,11.1708321 L7.46979094,11.9400516 C8.120289,10.2257003 7.74903214,7.4010825 7.32670256,5.2531587 C7.26239698,5.52482131 7.17299411,5.81760206 7.05667178,6.1310446 C6.42125714,7.84133728 5.10694355,8.35091916 4.23725714,8.68819443 C3.9387554,8.80442439 3.56633031,8.94955331 3.48479721,9.06052892 C3.4636892,9.0974 3.43696446,9.22015261 3.42120139,9.29344181 C3.36720836,9.54601324 3.20278328,10.3134209 2.3988669,10.4696021 L2.29323624,10.4893512 L2.18887387,10.4893512 C1.54113868,10.4893512 1.14950801,10.0011491 0.760957491,9.26970662 C0.37285993,8.53998537 -0.769056446,5.97667526 0.819298955,3.62471707 C1.67530592,2.35651498 2.66421185,1.71367178 3.75757073,1.71367178 C4.07545923,1.71367178 4.35221882,1.76748362 4.57897143,1.82935819 C5.39507857,0.912133469 6.25039131,0.216146379 7.58348771,0.137109503 Z" id="path-1"></path>
    </defs>
    <g id="Logos" stroke="none" stroke-width="1" fill="none" fill-rule="evenodd">
        <g id="logos/monochrome/logo">
            <mask id="mask-2" fill="white">
                <use xlink:href="#path-1"></use>
            </mask>
            <use id="Membean-Logo" fill="#252D30" xlink:href="#path-1"></use>
        </g>
    </g>
</svg>