<?xml version="1.0" encoding="UTF-8"?>
<svg width="89px" height="26px" viewBox="0 0 89 26" version="1.1" xmlns="http://www.w3.org/2000/svg" xmlns:xlink="http://www.w3.org/1999/xlink">
    <!-- Generator: Sketch 51.3 (57544) - http://www.bohemiancoding.com/sketch -->
    <title>Combined Shape</title>
    <desc>Created with Sketch.</desc>
    <defs>
        <path d="M41.6977308,22.5108889 L45.4298122,22.5108889 L45.4298122,21.3777778 C46.357402,21.9333333 47.2408208,22.2 48.0579832,22.2 C50.5315559,22.2 52.0554533,19.9333333 52.5855046,15.3997778 C52.651761,14.7777778 52.6959319,14.1111111 52.6738465,13.4 C52.6738465,11.6 52.3204789,10.1555556 51.6358294,9.06666667 C50.7965815,7.77777778 49.5597952,7.13333333 47.859214,7.13333333 C47.064137,7.13333333 46.2028037,7.28888889 45.2752139,7.6 L45.2752139,3.91111111 L45.606496,2.22222222 L41.3440002,2.31111111 L41.7636242,3.97777778 L41.9403079,20.8 L41.6681243,22.3060839 L41.4985985,21.1333778 C41.4765131,17.7776 41.3440002,15.3778222 41.145231,13.9111556 C40.6593507,10.3111556 39.6655045,8.42226667 38.185778,8.24448889 C37.1698464,8.13337778 36.2643421,8.71115556 35.4692652,9.97782222 C35.0054703,9.06671111 34.3649917,8.60004444 33.4815728,8.60004444 C32.8410942,8.60004444 32.2006156,8.9556 31.5601369,9.66648889 L31.5601369,9.3556 L32.3993848,8.20004444 L27.6068378,7.44426667 L28.0706326,9.24448889 L27.7393506,21.7111556 L27.4080685,23.9553778 L31.9355899,23.0664889 L31.2288549,21.8222667 L31.3613677,16.7776 L31.8251626,15.0889333 C31.9135045,14.7776 32.222701,14.6220444 32.7085814,14.6220444 C32.9956925,14.8887111 33.1282053,15.4442667 33.1282053,16.3111556 C33.1282053,17.2000444 32.9294361,18.7556 32.5098122,20.9778222 C32.1564446,21.2667111 31.9797609,21.4889333 31.9576754,21.6444889 L36.2201712,22.2667111 C36.2422566,22.0889333 36.1318293,21.6889333 35.8888891,21.0889333 C36.1097438,18.8222667 36.2201712,16.9778222 36.2201712,15.5778222 C36.6397951,14.5109333 37.0815045,13.9553778 37.5894703,13.8887111 C38.0090942,14.8222667 38.2078635,16.1776 38.2078635,17.9333778 C38.2078635,18.9998222 38.1416071,20.0664889 38.0090942,21.1333778 L37.2802737,22.2220444 L41.8519661,23.5778222 L41.6977308,22.5108889 Z M81.1420176,23.578 L81.164103,23.6446667 L74.6488893,23.5111111 L74.7811813,26 L66.3005816,23.8888889 L66.6537283,23 C65.5938465,22.6222222 64.5779149,22 63.6503252,21.1335556 C63.2527867,20.7777778 62.9215046,20.4224444 62.6123081,20.0446667 L62.3693679,20.2002222 C62.1705987,20.4891111 61.9276585,20.7777778 61.6403265,21.1111111 C60.2270773,22.7113333 58.6369234,23.5335556 56.8919504,23.5335556 C54.8380017,23.5335556 53.5572653,22.378 52.739882,20.8224444 C51.3928892,23.1335556 49.5597952,23.7557778 47.9696413,23.7557778 C47.7267011,23.7557778 47.4616755,23.7333333 47.2185145,23.7113333 L47.2185145,24.0666667 L43.773402,24.0666667 L44.0384276,25.8888889 L37.7882395,24.0446667 L37.7882395,24.0666667 L34.4533335,23.578 L34.7402238,24.0666667 L25.0670087,26 L25.7295728,21.5335556 C24.4486155,22.8668889 22.9909745,23.5335556 21.4008206,23.5335556 C20.2523762,23.5335556 19.3247864,23.1557778 18.5959659,22.5555556 L19.0818463,25.8888889 L12.8316582,24.0446667 L12.8316582,24.0666667 L9.49675219,23.578 L9.78364245,24.0666667 L0.110427351,26 L0.817162398,21.2222222 L1.14844445,9.15577778 L0,4.82244444 L10.7335385,6.53355556 L10.4685129,6.91133333 C11.3740172,6.22222222 12.257436,6.04466667 12.9420855,6.04466667 C13.0745984,6.04466667 13.1850257,6.04466667 13.3173177,6.06688889 C14.6868377,6.22222222 15.6362921,7.02244444 16.2988562,8.04466667 C16.3653334,7.66666667 16.4536753,7.31133333 16.5641027,6.95577778 C17.6683762,3.04466667 20.009436,2.44444444 21.3124788,2.44444444 C21.467077,2.44444444 21.6437608,2.44444444 21.8202237,2.46688889 C23.2118292,2.62244444 24.5148719,3.42244444 25.7956084,4.978 L35.6459489,6.53355556 L35.3809233,6.91133333 C36.2862067,6.22222222 37.1696255,6.04466667 37.854496,6.04466667 C37.9870088,6.04466667 38.1416071,6.04466667 38.2962054,6.06688889 C38.8925131,6.13355556 39.4004789,6.33333333 39.8642737,6.62244444 L39.8421883,3.91133333 L38.8925131,0.178 L47.859214,0 L47.1080871,3.80022222 L47.1080871,4.95577778 C49.1620358,4.77777778 50.9070088,5.33333333 52.1877453,6.53355556 C53.3582752,3 55.5668222,2.44444444 56.825694,2.44444444 C56.9805132,2.44444444 57.1569761,2.44444444 57.3336598,2.46688889 C58.4160687,2.578 59.4317795,3.06688889 60.4256257,3.95577778 L60.2933337,3.578 L64.4674876,3.24466667 C66.9408394,2.82244444 67.4711115,2.77777778 67.7803081,2.77777778 C69.9005132,2.77777778 71.6452654,3.35577778 73.03665,4.46688889 L72.8157953,2.978 L81.4068224,3.08911111 L81.164103,4.28911111 C82.4006685,4.26688889 83.5714193,4.75577778 84.6092155,5.71133333 C86.1112484,7.08911111 87.0167527,9.44444444 87.4140703,12.8888889 C87.5688894,14.2668889 87.6572313,16.4668889 87.6572313,19.6666667 L88.8054549,24.1777778 L81.1420176,23.578 Z M86.4205112,22.4222222 L85.8242035,20.2222222 L85.8242035,20.0888889 C85.8242035,16.9553333 85.7579471,14.7331111 85.6033488,13.4444444 C85.2720668,10.4888889 84.5209399,8.48888889 83.3948018,7.44444444 C82.7099314,6.82222222 82.0255026,6.51111111 81.2966821,6.51111111 C80.4795197,6.51111111 79.6402719,6.88888889 78.7787177,7.66666667 L78.7787177,7.26666667 L79.1762561,5.26666667 L75.0241877,5.2 L75.3112988,7.13333333 L74.9581522,19.8 L74.42788,21.9333333 L78.889145,22.0222222 L78.4474356,19.9111111 L78.6464257,12.9777778 C79.5740154,11.1777778 80.4132633,10.2444444 81.1862548,10.1777778 C82.0034172,10.8888889 82.4228202,12.9111111 82.4228202,16.2444444 C82.4228202,16.6888889 82.4228202,17.3333333 82.4009556,18.1775556 C82.3786493,19.0444444 82.3786493,19.6888889 82.3786493,20.1111111 L82.3786493,20.2444444 L82.0915382,22.0888889 L86.4205112,22.4222222 Z M74.0965538,12.8888 C74.1409456,12.4665778 74.1409456,12.0888 74.1851165,11.7554667 C74.1851165,9.6888 73.6548444,8.06657778 72.5949627,6.86657778 C71.4906892,5.64435556 69.9226208,5.02213333 67.8907575,5.02213333 C67.5813401,5.02213333 66.5435438,5.17768889 64.7987917,5.46657778 L62.9877831,5.59991111 L64.4675096,9.75546667 L65.8809797,8.79991111 C66.4331165,8.42213333 67.0515097,8.24435556 67.6917674,8.24435556 C68.7300054,8.24435556 69.5250823,8.66657778 70.0993046,9.4888 C65.3509285,10.9776889 62.9877831,13.1332444 62.9877831,15.9554667 C62.9877831,17.5110222 63.6724327,18.8888 65.0196464,20.1110222 C66.3226891,21.3110222 67.7582447,21.9112444 69.3263131,21.9332444 L68.9287746,22.9332444 L72.8818529,23.9112444 L72.7937319,22.2445778 C73.1470994,21.5999111 73.5888088,18.4888 74.0965538,12.8888 Z M70.5851849,12.9999111 C70.3864157,15.0665778 70.2539028,16.7332444 70.1876464,17.9776889 C70.0551336,18.0888 69.9226208,18.1999111 69.7680225,18.3110222 C69.7238516,18.3332444 69.6355097,18.3332444 69.4809114,18.3332444 C68.8625182,18.3332444 68.2662105,18.1554667 67.6917674,17.8221333 C66.8969114,17.3776889 66.4993729,16.7554667 66.455202,15.9776889 C66.411031,14.9332444 67.7803302,13.9332444 70.5851849,12.9999111 Z M62.965786,11.5999556 C61.0222646,7.17773333 59.1008287,4.86662222 57.2454284,4.68884444 C55.6994455,4.51106667 54.5951719,5.55551111 53.9549142,7.82217778 C53.5571548,9.22217778 53.3586065,10.9332889 53.3586065,12.9777333 C53.3586065,18.9999556 54.5733073,21.9999556 57.0027091,21.9999556 C58.1951036,21.9999556 59.2993771,21.3999556 60.3155296,20.2221778 C60.6686763,19.7999556 60.9557874,19.4444 61.1545566,19.1555111 L62.634504,18.1999556 L59.255427,15.7332889 C59.0345723,16.2666222 58.8137176,16.7777333 58.6147275,17.3110667 C58.2615809,17.9777333 57.8417361,18.2888444 57.378162,18.2444 C56.8478899,17.8888444 56.4947432,16.6221778 56.3178386,14.4444 L61.5079241,14.0444 L62.965786,11.5999556 Z M58.636813,10.7110667 L56.3178386,10.8666222 C56.4724369,9.55551111 56.7818544,8.79995556 57.2235638,8.59995556 C57.5990168,8.66662222 57.9079925,8.95551111 58.1511535,9.4444 C58.2174099,9.55551111 58.3720082,9.97773333 58.636813,10.7110667 Z M48.0358977,18.6444444 C47.4616755,18.7111111 46.688684,18.1555556 45.7390088,17 L45.4298122,16.3777778 L45.4298122,11.4 C46.357402,10.8888889 47.1745644,10.6444444 47.9033849,10.6444444 C48.8088892,10.6444444 49.2505986,11.5555556 49.2505986,13.4 C49.2505986,14.1775556 49.1401712,15.0888889 48.941402,16.1555556 C48.6984618,17.4666667 48.3892652,18.2886667 48.0358977,18.6444444 Z M27.5847081,12.0666444 C25.5307594,7.31108889 23.5651525,4.84442222 21.7099731,4.66664444 C20.1639901,4.48886667 19.0818021,5.53331111 18.4413235,7.79997778 C18.0216995,9.19997778 17.8229303,10.9110889 17.8229303,12.9555333 C17.8229303,18.9777556 19.0376312,21.9777556 21.4670329,21.9777556 C22.6596483,21.9777556 23.7639218,21.3777556 24.7798534,20.1999778 C25.1332209,19.7777556 25.420332,19.4222 25.6191013,19.1333111 L27.4080244,17.6444222 L23.2780414,15.6888667 C23.211785,15.7777556 23.1896996,15.9110889 23.1896996,16.0888667 C23.1896996,16.2888667 23.2338705,16.5110889 23.2780414,16.7999778 C22.9246739,17.7999778 22.460879,18.2888667 21.8645713,18.2222 C21.3345201,17.8666444 20.9811525,16.5999778 20.8044688,14.4222 L27.0767423,13.8444222 L27.5847081,12.0666444 Z M23.4768107,11.3999778 L21.2020072,11.5555333 C21.3345201,10.2444222 21.6437166,9.48886667 22.085426,9.28886667 C22.5271354,9.37775556 22.836332,9.66664444 23.0130158,10.1555333 C23.211785,10.7110889 23.3663833,11.1110889 23.4768107,11.3999778 Z M2.42940172,23.9999111 L6.93483765,23.1110222 L6.2281026,21.8665778 L6.36061542,16.8221333 L6.8244103,15.1334667 C6.91275218,14.8221333 7.22194876,14.6665778 7.70782911,14.6665778 C7.99494022,14.9332444 8.12745304,15.4888 8.12745304,16.3556889 C8.12745304,17.2221333 7.90659834,18.7776889 7.50905987,20.9999111 C7.15569235,21.2888 6.97900859,21.5110222 6.95692312,21.6665778 L11.2194189,22.2888 C11.2415043,22.1110222 11.131077,21.7110222 10.8881368,21.1110222 C11.1089915,18.8665778 11.2194189,17.0223556 11.2194189,15.6221333 C11.6390428,14.5554667 12.0807522,13.9999111 12.588718,13.9332444 C13.008342,14.8665778 13.2071112,16.2221333 13.2071112,17.9776889 C13.2071112,19.0443556 13.1408548,20.1110222 13.008342,21.1776889 L12.2795214,22.2665778 L16.8512138,23.6221333 L16.4978463,21.1776889 C16.4757608,17.8443556 16.343248,15.4443556 16.1444787,13.9776889 C15.6585984,10.3776889 14.6647522,8.4888 13.1850257,8.31102222 C12.1911796,8.19991111 11.2856753,8.77768889 10.4905984,10.0443556 C10.0268035,9.13324444 9.38632484,8.66657778 8.50290603,8.66657778 C7.8624274,8.66657778 7.17777782,9.4888 6.58147012,9.73324444 L6.58147012,9.42213333 L7.42071799,8.26657778 L2.62817096,7.51102222 L3.09196583,9.31102222 L2.76068378,21.7554667 L2.42940172,23.9999111 Z" id="path-1"></path>
    </defs>
    <g id="Logos" stroke="none" stroke-width="1" fill="none" fill-rule="evenodd">
        <g id="logos/monochrome/wordmark">
            <mask id="mask-2" fill="white">
                <use xlink:href="#path-1"></use>
            </mask>
            <use id="Combined-Shape" fill="#21292E" xlink:href="#path-1"></use>
        </g>
    </g>
</svg>